<mxfile host="Electron" agent="Mozilla/5.0 (X11; Linux x86_64) AppleWebKit/537.36 (KHTML, like Gecko) draw.io/26.2.15 Chrome/134.0.6998.205 Electron/35.2.1 Safari/537.36" version="26.2.15">
  <diagram name="Page-1" id="5uCiO4QfS2uGB0vlUhbj">
    <mxGraphModel dx="2253" dy="2050" grid="1" gridSize="10" guides="1" tooltips="1" connect="1" arrows="1" fold="1" page="1" pageScale="1" pageWidth="827" pageHeight="1169" math="0" shadow="0">
      <root>
        <mxCell id="0" />
        <mxCell id="1" parent="0" />
        <mxCell id="zvKKlIT2h7DpZrGQL-7I-1" value="&amp;lt;&amp;lt;Piece&amp;gt;&amp;gt;" style="swimlane;fontStyle=1;align=center;verticalAlign=top;childLayout=stackLayout;horizontal=1;startSize=26;horizontalStack=0;resizeParent=1;resizeParentMax=0;resizeLast=0;collapsible=1;marginBottom=0;whiteSpace=wrap;html=1;" vertex="1" parent="1">
          <mxGeometry x="-90" y="-40" width="310" height="190" as="geometry" />
        </mxCell>
        <mxCell id="zvKKlIT2h7DpZrGQL-7I-2" value="- name: ENUM" style="text;strokeColor=none;fillColor=none;align=left;verticalAlign=top;spacingLeft=4;spacingRight=4;overflow=hidden;rotatable=0;points=[[0,0.5],[1,0.5]];portConstraint=eastwest;whiteSpace=wrap;html=1;" vertex="1" parent="zvKKlIT2h7DpZrGQL-7I-1">
          <mxGeometry y="26" width="310" height="26" as="geometry" />
        </mxCell>
        <mxCell id="zvKKlIT2h7DpZrGQL-7I-10" value="- rank: ENUM" style="text;strokeColor=none;fillColor=none;align=left;verticalAlign=top;spacingLeft=4;spacingRight=4;overflow=hidden;rotatable=0;points=[[0,0.5],[1,0.5]];portConstraint=eastwest;whiteSpace=wrap;html=1;" vertex="1" parent="zvKKlIT2h7DpZrGQL-7I-1">
          <mxGeometry y="52" width="310" height="26" as="geometry" />
        </mxCell>
        <mxCell id="zvKKlIT2h7DpZrGQL-7I-11" value="- file: ENUM" style="text;strokeColor=none;fillColor=none;align=left;verticalAlign=top;spacingLeft=4;spacingRight=4;overflow=hidden;rotatable=0;points=[[0,0.5],[1,0.5]];portConstraint=eastwest;whiteSpace=wrap;html=1;" vertex="1" parent="zvKKlIT2h7DpZrGQL-7I-1">
          <mxGeometry y="78" width="310" height="26" as="geometry" />
        </mxCell>
        <mxCell id="zvKKlIT2h7DpZrGQL-7I-3" value="" style="line;strokeWidth=1;fillColor=none;align=left;verticalAlign=middle;spacingTop=-1;spacingLeft=3;spacingRight=3;rotatable=0;labelPosition=right;points=[];portConstraint=eastwest;strokeColor=inherit;" vertex="1" parent="zvKKlIT2h7DpZrGQL-7I-1">
          <mxGeometry y="104" width="310" height="8" as="geometry" />
        </mxCell>
        <mxCell id="zvKKlIT2h7DpZrGQL-7I-4" value="+ get_type(): ENUM" style="text;strokeColor=none;fillColor=none;align=left;verticalAlign=top;spacingLeft=4;spacingRight=4;overflow=hidden;rotatable=0;points=[[0,0.5],[1,0.5]];portConstraint=eastwest;whiteSpace=wrap;html=1;" vertex="1" parent="zvKKlIT2h7DpZrGQL-7I-1">
          <mxGeometry y="112" width="310" height="26" as="geometry" />
        </mxCell>
        <mxCell id="zvKKlIT2h7DpZrGQL-7I-12" value="+ get_position(): std::pair&amp;lt;ENUM,ENUM&amp;gt;" style="text;strokeColor=none;fillColor=none;align=left;verticalAlign=top;spacingLeft=4;spacingRight=4;overflow=hidden;rotatable=0;points=[[0,0.5],[1,0.5]];portConstraint=eastwest;whiteSpace=wrap;html=1;" vertex="1" parent="zvKKlIT2h7DpZrGQL-7I-1">
          <mxGeometry y="138" width="310" height="26" as="geometry" />
        </mxCell>
        <mxCell id="zvKKlIT2h7DpZrGQL-7I-33" value="&lt;i&gt;+ move(file, rank): void&lt;/i&gt;" style="text;strokeColor=none;fillColor=none;align=left;verticalAlign=top;spacingLeft=4;spacingRight=4;overflow=hidden;rotatable=0;points=[[0,0.5],[1,0.5]];portConstraint=eastwest;whiteSpace=wrap;html=1;" vertex="1" parent="zvKKlIT2h7DpZrGQL-7I-1">
          <mxGeometry y="164" width="310" height="26" as="geometry" />
        </mxCell>
        <mxCell id="zvKKlIT2h7DpZrGQL-7I-6" value="Pawn&lt;div&gt;&lt;br&gt;&lt;/div&gt;" style="swimlane;fontStyle=1;align=center;verticalAlign=top;childLayout=stackLayout;horizontal=1;startSize=26;horizontalStack=0;resizeParent=1;resizeParentMax=0;resizeLast=0;collapsible=1;marginBottom=0;whiteSpace=wrap;html=1;" vertex="1" parent="1">
          <mxGeometry x="350" y="350" width="160" height="60" as="geometry" />
        </mxCell>
        <mxCell id="zvKKlIT2h7DpZrGQL-7I-8" value="" style="line;strokeWidth=1;fillColor=none;align=left;verticalAlign=middle;spacingTop=-1;spacingLeft=3;spacingRight=3;rotatable=0;labelPosition=right;points=[];portConstraint=eastwest;strokeColor=inherit;" vertex="1" parent="zvKKlIT2h7DpZrGQL-7I-6">
          <mxGeometry y="26" width="160" height="8" as="geometry" />
        </mxCell>
        <mxCell id="zvKKlIT2h7DpZrGQL-7I-51" value="+ move(file, rank)" style="text;strokeColor=none;fillColor=none;align=left;verticalAlign=top;spacingLeft=4;spacingRight=4;overflow=hidden;rotatable=0;points=[[0,0.5],[1,0.5]];portConstraint=eastwest;whiteSpace=wrap;html=1;" vertex="1" parent="zvKKlIT2h7DpZrGQL-7I-6">
          <mxGeometry y="34" width="160" height="26" as="geometry" />
        </mxCell>
        <mxCell id="zvKKlIT2h7DpZrGQL-7I-13" value="&lt;div&gt;Knight&lt;/div&gt;" style="swimlane;fontStyle=1;align=center;verticalAlign=top;childLayout=stackLayout;horizontal=1;startSize=26;horizontalStack=0;resizeParent=1;resizeParentMax=0;resizeLast=0;collapsible=1;marginBottom=0;whiteSpace=wrap;html=1;" vertex="1" parent="1">
          <mxGeometry x="130" y="350" width="160" height="60" as="geometry" />
        </mxCell>
        <mxCell id="zvKKlIT2h7DpZrGQL-7I-15" value="" style="line;strokeWidth=1;fillColor=none;align=left;verticalAlign=middle;spacingTop=-1;spacingLeft=3;spacingRight=3;rotatable=0;labelPosition=right;points=[];portConstraint=eastwest;strokeColor=inherit;" vertex="1" parent="zvKKlIT2h7DpZrGQL-7I-13">
          <mxGeometry y="26" width="160" height="8" as="geometry" />
        </mxCell>
        <mxCell id="zvKKlIT2h7DpZrGQL-7I-50" value="+ move(file, rank)" style="text;strokeColor=none;fillColor=none;align=left;verticalAlign=top;spacingLeft=4;spacingRight=4;overflow=hidden;rotatable=0;points=[[0,0.5],[1,0.5]];portConstraint=eastwest;whiteSpace=wrap;html=1;" vertex="1" parent="zvKKlIT2h7DpZrGQL-7I-13">
          <mxGeometry y="34" width="160" height="26" as="geometry" />
        </mxCell>
        <mxCell id="zvKKlIT2h7DpZrGQL-7I-17" value="&lt;span style=&quot;font-weight: 400;&quot;&gt;Bishop&lt;/span&gt;" style="swimlane;fontStyle=1;align=center;verticalAlign=top;childLayout=stackLayout;horizontal=1;startSize=26;horizontalStack=0;resizeParent=1;resizeParentMax=0;resizeLast=0;collapsible=1;marginBottom=0;whiteSpace=wrap;html=1;" vertex="1" parent="1">
          <mxGeometry x="-120" y="350" width="160" height="60" as="geometry" />
        </mxCell>
        <mxCell id="zvKKlIT2h7DpZrGQL-7I-19" value="" style="line;strokeWidth=1;fillColor=none;align=left;verticalAlign=middle;spacingTop=-1;spacingLeft=3;spacingRight=3;rotatable=0;labelPosition=right;points=[];portConstraint=eastwest;strokeColor=inherit;" vertex="1" parent="zvKKlIT2h7DpZrGQL-7I-17">
          <mxGeometry y="26" width="160" height="8" as="geometry" />
        </mxCell>
        <mxCell id="zvKKlIT2h7DpZrGQL-7I-49" value="+ move(file, rank)" style="text;strokeColor=none;fillColor=none;align=left;verticalAlign=top;spacingLeft=4;spacingRight=4;overflow=hidden;rotatable=0;points=[[0,0.5],[1,0.5]];portConstraint=eastwest;whiteSpace=wrap;html=1;" vertex="1" parent="zvKKlIT2h7DpZrGQL-7I-17">
          <mxGeometry y="34" width="160" height="26" as="geometry" />
        </mxCell>
        <mxCell id="zvKKlIT2h7DpZrGQL-7I-21" value="&lt;span style=&quot;font-weight: 400;&quot;&gt;Rook&lt;/span&gt;" style="swimlane;fontStyle=1;align=center;verticalAlign=top;childLayout=stackLayout;horizontal=1;startSize=26;horizontalStack=0;resizeParent=1;resizeParentMax=0;resizeLast=0;collapsible=1;marginBottom=0;whiteSpace=wrap;html=1;" vertex="1" parent="1">
          <mxGeometry x="-370" y="350" width="160" height="60" as="geometry" />
        </mxCell>
        <mxCell id="zvKKlIT2h7DpZrGQL-7I-23" value="" style="line;strokeWidth=1;fillColor=none;align=left;verticalAlign=middle;spacingTop=-1;spacingLeft=3;spacingRight=3;rotatable=0;labelPosition=right;points=[];portConstraint=eastwest;strokeColor=inherit;" vertex="1" parent="zvKKlIT2h7DpZrGQL-7I-21">
          <mxGeometry y="26" width="160" height="8" as="geometry" />
        </mxCell>
        <mxCell id="zvKKlIT2h7DpZrGQL-7I-48" value="+ move(file, rank)" style="text;strokeColor=none;fillColor=none;align=left;verticalAlign=top;spacingLeft=4;spacingRight=4;overflow=hidden;rotatable=0;points=[[0,0.5],[1,0.5]];portConstraint=eastwest;whiteSpace=wrap;html=1;" vertex="1" parent="zvKKlIT2h7DpZrGQL-7I-21">
          <mxGeometry y="34" width="160" height="26" as="geometry" />
        </mxCell>
        <mxCell id="zvKKlIT2h7DpZrGQL-7I-25" value="&lt;span style=&quot;font-weight: 400;&quot;&gt;Queen&lt;/span&gt;" style="swimlane;fontStyle=1;align=center;verticalAlign=top;childLayout=stackLayout;horizontal=1;startSize=26;horizontalStack=0;resizeParent=1;resizeParentMax=0;resizeLast=0;collapsible=1;marginBottom=0;whiteSpace=wrap;html=1;" vertex="1" parent="1">
          <mxGeometry x="-620" y="350" width="160" height="60" as="geometry" />
        </mxCell>
        <mxCell id="zvKKlIT2h7DpZrGQL-7I-27" value="" style="line;strokeWidth=1;fillColor=none;align=left;verticalAlign=middle;spacingTop=-1;spacingLeft=3;spacingRight=3;rotatable=0;labelPosition=right;points=[];portConstraint=eastwest;strokeColor=inherit;" vertex="1" parent="zvKKlIT2h7DpZrGQL-7I-25">
          <mxGeometry y="26" width="160" height="8" as="geometry" />
        </mxCell>
        <mxCell id="zvKKlIT2h7DpZrGQL-7I-28" value="+ move(file, rank)" style="text;strokeColor=none;fillColor=none;align=left;verticalAlign=top;spacingLeft=4;spacingRight=4;overflow=hidden;rotatable=0;points=[[0,0.5],[1,0.5]];portConstraint=eastwest;whiteSpace=wrap;html=1;" vertex="1" parent="zvKKlIT2h7DpZrGQL-7I-25">
          <mxGeometry y="34" width="160" height="26" as="geometry" />
        </mxCell>
        <mxCell id="zvKKlIT2h7DpZrGQL-7I-29" value="&lt;span style=&quot;font-weight: 400;&quot;&gt;King&lt;/span&gt;" style="swimlane;fontStyle=1;align=center;verticalAlign=top;childLayout=stackLayout;horizontal=1;startSize=26;horizontalStack=0;resizeParent=1;resizeParentMax=0;resizeLast=0;collapsible=1;marginBottom=0;whiteSpace=wrap;html=1;" vertex="1" parent="1">
          <mxGeometry x="580" y="350" width="160" height="60" as="geometry" />
        </mxCell>
        <mxCell id="zvKKlIT2h7DpZrGQL-7I-31" value="" style="line;strokeWidth=1;fillColor=none;align=left;verticalAlign=middle;spacingTop=-1;spacingLeft=3;spacingRight=3;rotatable=0;labelPosition=right;points=[];portConstraint=eastwest;strokeColor=inherit;" vertex="1" parent="zvKKlIT2h7DpZrGQL-7I-29">
          <mxGeometry y="26" width="160" height="8" as="geometry" />
        </mxCell>
        <mxCell id="zvKKlIT2h7DpZrGQL-7I-52" value="+ move(file, rank)" style="text;strokeColor=none;fillColor=none;align=left;verticalAlign=top;spacingLeft=4;spacingRight=4;overflow=hidden;rotatable=0;points=[[0,0.5],[1,0.5]];portConstraint=eastwest;whiteSpace=wrap;html=1;" vertex="1" parent="zvKKlIT2h7DpZrGQL-7I-29">
          <mxGeometry y="34" width="160" height="26" as="geometry" />
        </mxCell>
        <mxCell id="zvKKlIT2h7DpZrGQL-7I-41" value="" style="endArrow=block;dashed=1;endFill=0;endSize=12;html=1;rounded=0;entryX=-0.003;entryY=0.846;entryDx=0;entryDy=0;entryPerimeter=0;exitX=0.5;exitY=0;exitDx=0;exitDy=0;" edge="1" parent="1" source="zvKKlIT2h7DpZrGQL-7I-25" target="zvKKlIT2h7DpZrGQL-7I-10">
          <mxGeometry width="160" relative="1" as="geometry">
            <mxPoint x="-573" y="210" as="sourcePoint" />
            <mxPoint x="-413" y="210" as="targetPoint" />
            <Array as="points">
              <mxPoint x="-540" y="34" />
            </Array>
          </mxGeometry>
        </mxCell>
        <mxCell id="zvKKlIT2h7DpZrGQL-7I-43" value="" style="endArrow=block;dashed=1;endFill=0;endSize=12;html=1;rounded=0;entryX=-0.003;entryY=0.192;entryDx=0;entryDy=0;entryPerimeter=0;exitX=0.438;exitY=-0.05;exitDx=0;exitDy=0;exitPerimeter=0;" edge="1" parent="1" source="zvKKlIT2h7DpZrGQL-7I-21" target="zvKKlIT2h7DpZrGQL-7I-4">
          <mxGeometry width="160" relative="1" as="geometry">
            <mxPoint x="-670" y="476" as="sourcePoint" />
            <mxPoint x="-221" y="160" as="targetPoint" />
            <Array as="points">
              <mxPoint x="-300" y="77" />
            </Array>
          </mxGeometry>
        </mxCell>
        <mxCell id="zvKKlIT2h7DpZrGQL-7I-44" value="" style="endArrow=block;dashed=1;endFill=0;endSize=12;html=1;rounded=0;entryX=0.158;entryY=0.885;entryDx=0;entryDy=0;entryPerimeter=0;exitX=0.5;exitY=0;exitDx=0;exitDy=0;" edge="1" parent="1" source="zvKKlIT2h7DpZrGQL-7I-17" target="zvKKlIT2h7DpZrGQL-7I-33">
          <mxGeometry width="160" relative="1" as="geometry">
            <mxPoint x="-460" y="806" as="sourcePoint" />
            <mxPoint x="-11" y="490" as="targetPoint" />
            <Array as="points" />
          </mxGeometry>
        </mxCell>
        <mxCell id="zvKKlIT2h7DpZrGQL-7I-45" value="" style="endArrow=block;dashed=1;endFill=0;endSize=12;html=1;rounded=0;entryX=0.829;entryY=1.115;entryDx=0;entryDy=0;entryPerimeter=0;exitX=0.25;exitY=0;exitDx=0;exitDy=0;" edge="1" parent="1" source="zvKKlIT2h7DpZrGQL-7I-13" target="zvKKlIT2h7DpZrGQL-7I-33">
          <mxGeometry width="160" relative="1" as="geometry">
            <mxPoint x="167" y="340" as="sourcePoint" />
            <mxPoint x="160" y="220" as="targetPoint" />
            <Array as="points" />
          </mxGeometry>
        </mxCell>
        <mxCell id="zvKKlIT2h7DpZrGQL-7I-46" value="" style="endArrow=block;dashed=1;endFill=0;endSize=12;html=1;rounded=0;entryX=0.997;entryY=-0.115;entryDx=0;entryDy=0;entryPerimeter=0;exitX=0.569;exitY=-0.067;exitDx=0;exitDy=0;exitPerimeter=0;" edge="1" parent="1" source="zvKKlIT2h7DpZrGQL-7I-6" target="zvKKlIT2h7DpZrGQL-7I-4">
          <mxGeometry width="160" relative="1" as="geometry">
            <mxPoint x="440" y="340" as="sourcePoint" />
            <mxPoint x="649" y="70" as="targetPoint" />
            <Array as="points">
              <mxPoint x="440" y="70" />
            </Array>
          </mxGeometry>
        </mxCell>
        <mxCell id="zvKKlIT2h7DpZrGQL-7I-47" value="" style="endArrow=block;dashed=1;endFill=0;endSize=12;html=1;rounded=0;entryX=1;entryY=0.5;entryDx=0;entryDy=0;exitX=0.194;exitY=-0.067;exitDx=0;exitDy=0;exitPerimeter=0;" edge="1" parent="1" source="zvKKlIT2h7DpZrGQL-7I-29" target="zvKKlIT2h7DpZrGQL-7I-10">
          <mxGeometry width="160" relative="1" as="geometry">
            <mxPoint x="610" y="336" as="sourcePoint" />
            <mxPoint x="1059" y="20" as="targetPoint" />
            <Array as="points">
              <mxPoint x="610" y="25" />
            </Array>
          </mxGeometry>
        </mxCell>
      </root>
    </mxGraphModel>
  </diagram>
</mxfile>
